%TF.GenerationSoftware,KiCad,Pcbnew,10.0.1*%
%TF.CreationDate,2026-06-19T07:18:46-04:00*%
%TF.ProjectId,Synth,53796e74-682e-46b6-9963-61645f706362,rev?*%
%TF.SameCoordinates,Original*%
%TF.FileFunction,Copper,L1,Top*%
%TF.FilePolarity,Positive*%
%FSLAX46Y46*%
G04 Gerber Fmt 4.6, Leading zero omitted, Abs format (unit mm)*
G04 Created by KiCad (PCBNEW 10.0.1) date 2026-06-19 07:18:46*
%MOMM*%
%LPD*%
G01*
G04 APERTURE LIST*
G04 Aperture macros list*
%AMRoundRect*
0 Rectangle with rounded corners*
0 $1 Rounding radius*
0 $2 $3 $4 $5 $6 $7 $8 $9 X,Y pos of 4 corners*
0 Add a 4 corners polygon primitive as box body*
4,1,4,$2,$3,$4,$5,$6,$7,$8,$9,$2,$3,0*
0 Add four circle primitives for the rounded corners*
1,1,$1+$1,$2,$3*
1,1,$1+$1,$4,$5*
1,1,$1+$1,$6,$7*
1,1,$1+$1,$8,$9*
0 Add four rect primitives between the rounded corners*
20,1,$1+$1,$2,$3,$4,$5,0*
20,1,$1+$1,$4,$5,$6,$7,0*
20,1,$1+$1,$6,$7,$8,$9,0*
20,1,$1+$1,$8,$9,$2,$3,0*%
G04 Aperture macros list end*
%TA.AperFunction,SMDPad,CuDef*%
%ADD10R,2.200000X1.600000*%
%TD*%
%TA.AperFunction,SMDPad,CuDef*%
%ADD11RoundRect,0.100000X-0.130000X-0.100000X0.130000X-0.100000X0.130000X0.100000X-0.130000X0.100000X0*%
%TD*%
%TA.AperFunction,SMDPad,CuDef*%
%ADD12RoundRect,0.250000X-1.000000X0.375000X-1.000000X-0.375000X1.000000X-0.375000X1.000000X0.375000X0*%
%TD*%
%TA.AperFunction,SMDPad,CuDef*%
%ADD13RoundRect,0.100000X0.130000X0.100000X-0.130000X0.100000X-0.130000X-0.100000X0.130000X-0.100000X0*%
%TD*%
%TA.AperFunction,ComponentPad*%
%ADD14R,1.050000X1.500000*%
%TD*%
%TA.AperFunction,ComponentPad*%
%ADD15O,1.050000X1.500000*%
%TD*%
%TA.AperFunction,ComponentPad*%
%ADD16RoundRect,0.250000X-1.050000X-1.050000X1.050000X-1.050000X1.050000X1.050000X-1.050000X1.050000X0*%
%TD*%
%TA.AperFunction,ComponentPad*%
%ADD17C,2.600000*%
%TD*%
%TA.AperFunction,ComponentPad*%
%ADD18O,4.000000X4.000000*%
%TD*%
%TA.AperFunction,ComponentPad*%
%ADD19R,1.800000X1.800000*%
%TD*%
%TA.AperFunction,ComponentPad*%
%ADD20C,1.800000*%
%TD*%
%TA.AperFunction,SMDPad,CuDef*%
%ADD21R,2.800000X2.200000*%
%TD*%
%TA.AperFunction,SMDPad,CuDef*%
%ADD22R,2.800000X2.800000*%
%TD*%
%TA.AperFunction,ViaPad*%
%ADD23C,0.600000*%
%TD*%
%TA.AperFunction,Conductor*%
%ADD24C,0.200000*%
%TD*%
G04 APERTURE END LIST*
D10*
%TO.P,C2,1*%
%TO.N,Net-(Q1-C)*%
X30350000Y-46950000D03*
%TO.P,C2,2*%
%TO.N,AudioOut*%
X27350000Y-46950000D03*
%TD*%
%TO.P,C4,1*%
%TO.N,Net-(Q2-C)*%
X41730000Y-50560000D03*
%TO.P,C4,2*%
%TO.N,1*%
X44730000Y-50560000D03*
%TD*%
D11*
%TO.P,R6,1*%
%TO.N,GND*%
X53925000Y-38650000D03*
%TO.P,R6,2*%
%TO.N,OscOut*%
X54565000Y-38650000D03*
%TD*%
%TO.P,R5,1*%
%TO.N,GND*%
X53930000Y-41100000D03*
%TO.P,R5,2*%
%TO.N,Net-(Q2-E)*%
X54570000Y-41100000D03*
%TD*%
D12*
%TO.P,SW1,1,1_1*%
%TO.N,Net-(R9-Pad2)*%
X34050000Y-53200000D03*
%TO.P,SW1,2,2_2*%
%TO.N,EnvelopeOut*%
X34050000Y-55700000D03*
%TO.P,SW1,3*%
%TO.N,N/C*%
X34050000Y-58200000D03*
%TD*%
D13*
%TO.P,R3,1*%
%TO.N,GND*%
X44365000Y-55850000D03*
%TO.P,R3,2*%
%TO.N,EnvelopeOut*%
X43725000Y-55850000D03*
%TD*%
D10*
%TO.P,C1,1*%
%TO.N,OscOut*%
X37600000Y-55800000D03*
%TO.P,C1,2*%
%TO.N,EnvelopeOut*%
X40600000Y-55800000D03*
%TD*%
D14*
%TO.P,Q1,1,E_1*%
%TO.N,Net-(Q1-E)*%
X35930000Y-46760000D03*
D15*
%TO.P,Q1,2,B_2*%
%TO.N,EnvelopeOut*%
X37200000Y-46760000D03*
%TO.P,Q1,3,C_3*%
%TO.N,Net-(Q1-C)*%
X38470000Y-46760000D03*
%TD*%
D14*
%TO.P,Q2,1,E_1*%
%TO.N,Net-(Q2-E)*%
X47630000Y-45810000D03*
D15*
%TO.P,Q2,2,B_2*%
%TO.N,1*%
X48900000Y-45810000D03*
%TO.P,Q2,3,C_3*%
%TO.N,Net-(Q2-C)*%
X50170000Y-45810000D03*
%TD*%
D13*
%TO.P,R1,1*%
%TO.N,2*%
X37530000Y-51870000D03*
%TO.P,R1,2*%
%TO.N,EnvelopeOut*%
X36890000Y-51870000D03*
%TD*%
D11*
%TO.P,R8,1*%
%TO.N,Net-(J2-PadT)*%
X26675000Y-43050000D03*
%TO.P,R8,2*%
%TO.N,AudioOut*%
X27315000Y-43050000D03*
%TD*%
D16*
%TO.P,J1,1,Pin_1_1*%
%TO.N,+9V*%
X55220000Y-55480000D03*
D17*
%TO.P,J1,2,Pin_2_2*%
%TO.N,GND*%
X60220000Y-55480000D03*
%TD*%
D11*
%TO.P,R9,1*%
%TO.N,+9V*%
X53980000Y-45750000D03*
%TO.P,R9,2*%
%TO.N,Net-(R9-Pad2)*%
X54620000Y-45750000D03*
%TD*%
D10*
%TO.P,C3,1*%
%TO.N,2*%
X58850000Y-36600000D03*
%TO.P,C3,2*%
%TO.N,Net-(Q2-C)*%
X61850000Y-36600000D03*
%TD*%
D18*
%TO.P,RV1,*%
%TO.N,*%
X43150000Y-31075000D03*
X52650000Y-31075000D03*
D19*
%TO.P,RV1,1,1_1*%
%TO.N,1*%
X45400000Y-38575000D03*
D20*
%TO.P,RV1,2,2_2*%
%TO.N,Net-(Q2-C)*%
X47900000Y-38575000D03*
%TO.P,RV1,3,3_3*%
%TO.N,2*%
X50400000Y-38575000D03*
%TD*%
D21*
%TO.P,J2,R*%
%TO.N,N/C*%
X38550000Y-32200000D03*
%TO.P,J2,S*%
%TO.N,GND*%
X31150000Y-30200000D03*
D22*
%TO.P,J2,T*%
%TO.N,Net-(J2-PadT)*%
X31150000Y-39600000D03*
%TD*%
D14*
%TO.P,Q3,1,E_1*%
%TO.N,OscOut*%
X47410000Y-57750000D03*
D15*
%TO.P,Q3,2,B_2*%
%TO.N,2*%
X48680000Y-57750000D03*
%TO.P,Q3,3,C_3*%
%TO.N,Net-(Q2-C)*%
X49950000Y-57750000D03*
%TD*%
D11*
%TO.P,R7,1*%
%TO.N,GND*%
X26525000Y-32300000D03*
%TO.P,R7,2*%
%TO.N,Net-(Q1-E)*%
X27165000Y-32300000D03*
%TD*%
%TO.P,R4,1*%
%TO.N,+9V*%
X53980000Y-43450000D03*
%TO.P,R4,2*%
%TO.N,Net-(Q2-C)*%
X54620000Y-43450000D03*
%TD*%
D23*
%TO.N,Net-(Q2-C)*%
X52800000Y-47780000D03*
X56030000Y-44510000D03*
%TO.N,1*%
X47590000Y-42630000D03*
%TO.N,Net-(Q2-E)*%
X45670000Y-46510000D03*
X45520000Y-43820000D03*
%TO.N,Net-(R9-Pad2)*%
X52510000Y-44300000D03*
X54930000Y-44380000D03*
%TO.N,EnvelopeOut*%
X36810000Y-50550000D03*
X43670000Y-55030000D03*
X43650000Y-53620000D03*
%TO.N,2*%
X45860000Y-51880000D03*
X55700000Y-39670000D03*
%TD*%
%TO.N,Net-(Q1-C)*%
D24*
X31210000Y-47810000D02*
X37645000Y-47810000D01*
X30350000Y-46950000D02*
X31210000Y-47810000D01*
X37645000Y-47810000D02*
X38470000Y-46985000D01*
X38470000Y-46985000D02*
X38470000Y-46760000D01*
%TO.N,AudioOut*%
X27315000Y-43050000D02*
X27315000Y-46915000D01*
X27315000Y-46915000D02*
X27350000Y-46950000D01*
%TO.N,Net-(Q2-C)*%
X54970000Y-43450000D02*
X54620000Y-43450000D01*
X41730000Y-50560000D02*
X41730000Y-49560000D01*
X50830000Y-45810000D02*
X52800000Y-47780000D01*
X49470000Y-57605000D02*
X49470000Y-57830000D01*
X50170000Y-45810000D02*
X50830000Y-45810000D01*
X56030000Y-44510000D02*
X54970000Y-43450000D01*
X50170000Y-45585000D02*
X50170000Y-45810000D01*
X54620000Y-43450000D02*
X55000000Y-43450000D01*
X41730000Y-49560000D02*
X46530000Y-44760000D01*
X46530000Y-44760000D02*
X49345000Y-44760000D01*
X55000000Y-43450000D02*
X61850000Y-36600000D01*
X49345000Y-44760000D02*
X50170000Y-45585000D01*
%TO.N,1*%
X48900000Y-46390000D02*
X48900000Y-45810000D01*
X45400000Y-40440000D02*
X47590000Y-42630000D01*
X44730000Y-50560000D02*
X48900000Y-46390000D01*
X45400000Y-38575000D02*
X45400000Y-40440000D01*
%TO.N,GND*%
X53925000Y-34955000D02*
X63480000Y-25400000D01*
X26525000Y-32300000D02*
X25300000Y-33525000D01*
X63480000Y-25400000D02*
X35950000Y-25400000D01*
X63602186Y-61505330D02*
X63602186Y-55970000D01*
X63602186Y-25400000D02*
X63480000Y-25400000D01*
X53925000Y-38650000D02*
X53925000Y-34955000D01*
X63552186Y-55480000D02*
X63602186Y-55430000D01*
X63602186Y-55430000D02*
X63602186Y-25400000D01*
X53930000Y-38655000D02*
X53925000Y-38650000D01*
X44400000Y-61505330D02*
X63602186Y-61505330D01*
X35950000Y-25400000D02*
X31150000Y-30200000D01*
X63602186Y-55970000D02*
X63602186Y-55430000D01*
X44365000Y-61470330D02*
X44400000Y-61505330D01*
X25300000Y-61505330D02*
X44400000Y-61505330D01*
X44365000Y-55850000D02*
X44365000Y-61470330D01*
X60220000Y-55480000D02*
X63552186Y-55480000D01*
X53930000Y-41100000D02*
X53930000Y-38655000D01*
X25300000Y-33525000D02*
X25300000Y-61505330D01*
%TO.N,OscOut*%
X32500000Y-55090256D02*
X32500000Y-56309744D01*
X53400000Y-55691726D02*
X53400000Y-43068456D01*
X48338274Y-58800000D02*
X50291726Y-58800000D01*
X35900000Y-56625000D02*
X35900000Y-55850000D01*
X43960000Y-54300000D02*
X33290256Y-54300000D01*
X35900000Y-55850000D02*
X36250000Y-55850000D01*
X50291726Y-58800000D02*
X53400000Y-55691726D01*
X47410000Y-57750000D02*
X43960000Y-54300000D01*
X33290256Y-54300000D02*
X32500000Y-55090256D01*
X55100000Y-39185000D02*
X54565000Y-38650000D01*
X32815256Y-56625000D02*
X35900000Y-56625000D01*
X55100000Y-41368456D02*
X55100000Y-39185000D01*
X32500000Y-56309744D02*
X32815256Y-56625000D01*
X53400000Y-43068456D02*
X55100000Y-41368456D01*
X47410000Y-57750000D02*
X47410000Y-57871726D01*
X36250000Y-55850000D02*
X36300000Y-55800000D01*
X36300000Y-55800000D02*
X37600000Y-55800000D01*
X47410000Y-57871726D02*
X48338274Y-58800000D01*
%TO.N,Net-(Q2-E)*%
X54570000Y-41299999D02*
X52049999Y-43820000D01*
X45670000Y-46510000D02*
X46370000Y-45810000D01*
X46370000Y-45810000D02*
X47630000Y-45810000D01*
X54570000Y-41100000D02*
X54570000Y-41299999D01*
X52049999Y-43820000D02*
X45520000Y-43820000D01*
%TO.N,Net-(R9-Pad2)*%
X37821471Y-48690000D02*
X42034314Y-48690000D01*
X54930000Y-45440000D02*
X54620000Y-45750000D01*
X34050000Y-53200000D02*
X34050000Y-52461471D01*
X42034314Y-48690000D02*
X46424314Y-44300000D01*
X46424314Y-44300000D02*
X52510000Y-44300000D01*
X34050000Y-52461471D02*
X37821471Y-48690000D01*
X54930000Y-44380000D02*
X54930000Y-45440000D01*
%TO.N,EnvelopeOut*%
X37200000Y-46760000D02*
X37200000Y-46638274D01*
X40600000Y-55800000D02*
X43675000Y-55800000D01*
X43670000Y-55030000D02*
X43670000Y-55795000D01*
X39500000Y-54700000D02*
X40600000Y-55800000D01*
X36810000Y-50550000D02*
X36810000Y-51790000D01*
X34050000Y-55700000D02*
X35050000Y-54700000D01*
X43675000Y-55800000D02*
X43725000Y-55850000D01*
X36890000Y-52028456D02*
X38481544Y-53620000D01*
X38481544Y-53620000D02*
X43650000Y-53620000D01*
X36890000Y-51870000D02*
X36890000Y-52028456D01*
X43670000Y-55795000D02*
X43725000Y-55850000D01*
X35050000Y-54700000D02*
X39500000Y-54700000D01*
X36810000Y-51790000D02*
X36890000Y-51870000D01*
%TO.N,Net-(Q1-E)*%
X35930000Y-46760000D02*
X36050000Y-46640000D01*
X36050000Y-46640000D02*
X36050000Y-34850000D01*
X33500000Y-32300000D02*
X27165000Y-32300000D01*
X36050000Y-34850000D02*
X33500000Y-32300000D01*
%TO.N,2*%
X45850000Y-51870000D02*
X43750000Y-51870000D01*
X48680000Y-56800000D02*
X43750000Y-51870000D01*
X43750000Y-51870000D02*
X37530000Y-51870000D01*
X58850000Y-36600000D02*
X58770000Y-36600000D01*
X48680000Y-57750000D02*
X48680000Y-56800000D01*
X45860000Y-51880000D02*
X45850000Y-51870000D01*
X58770000Y-36600000D02*
X55700000Y-39670000D01*
%TO.N,Net-(J2-PadT)*%
X29550000Y-39600000D02*
X26675000Y-42475000D01*
X26675000Y-42475000D02*
X26675000Y-43050000D01*
X31150000Y-39600000D02*
X29550000Y-39600000D01*
%TO.N,+9V*%
X55220000Y-55480000D02*
X53980000Y-54240000D01*
X53980000Y-43450000D02*
X53980000Y-45750000D01*
X53980000Y-54240000D02*
X53980000Y-45750000D01*
%TD*%
M02*
