%TF.GenerationSoftware,KiCad,Pcbnew,10.0.1*%
%TF.CreationDate,2026-06-19T07:18:46-04:00*%
%TF.ProjectId,Synth,53796e74-682e-46b6-9963-61645f706362,rev?*%
%TF.SameCoordinates,Original*%
%TF.FileFunction,Soldermask,Top*%
%TF.FilePolarity,Negative*%
%FSLAX46Y46*%
G04 Gerber Fmt 4.6, Leading zero omitted, Abs format (unit mm)*
G04 Created by KiCad (PCBNEW 10.0.1) date 2026-06-19 07:18:46*
%MOMM*%
%LPD*%
G01*
G04 APERTURE LIST*
G04 Aperture macros list*
%AMRoundRect*
0 Rectangle with rounded corners*
0 $1 Rounding radius*
0 $2 $3 $4 $5 $6 $7 $8 $9 X,Y pos of 4 corners*
0 Add a 4 corners polygon primitive as box body*
4,1,4,$2,$3,$4,$5,$6,$7,$8,$9,$2,$3,0*
0 Add four circle primitives for the rounded corners*
1,1,$1+$1,$2,$3*
1,1,$1+$1,$4,$5*
1,1,$1+$1,$6,$7*
1,1,$1+$1,$8,$9*
0 Add four rect primitives between the rounded corners*
20,1,$1+$1,$2,$3,$4,$5,0*
20,1,$1+$1,$4,$5,$6,$7,0*
20,1,$1+$1,$6,$7,$8,$9,0*
20,1,$1+$1,$8,$9,$2,$3,0*%
G04 Aperture macros list end*
%ADD10R,2.200000X1.600000*%
%ADD11RoundRect,0.100000X-0.130000X-0.100000X0.130000X-0.100000X0.130000X0.100000X-0.130000X0.100000X0*%
%ADD12C,0.900000*%
%ADD13RoundRect,0.250000X-1.000000X0.375000X-1.000000X-0.375000X1.000000X-0.375000X1.000000X0.375000X0*%
%ADD14RoundRect,0.100000X0.130000X0.100000X-0.130000X0.100000X-0.130000X-0.100000X0.130000X-0.100000X0*%
%ADD15R,1.050000X1.500000*%
%ADD16O,1.050000X1.500000*%
%ADD17RoundRect,0.250000X-1.050000X-1.050000X1.050000X-1.050000X1.050000X1.050000X-1.050000X1.050000X0*%
%ADD18C,2.600000*%
%ADD19O,4.000000X4.000000*%
%ADD20R,1.800000X1.800000*%
%ADD21C,1.800000*%
%ADD22C,1.700000*%
%ADD23R,2.800000X2.200000*%
%ADD24R,2.800000X2.800000*%
G04 APERTURE END LIST*
D10*
%TO.C,C2*%
X30350000Y-46950000D03*
X27350000Y-46950000D03*
%TD*%
%TO.C,C4*%
X41730000Y-50560000D03*
X44730000Y-50560000D03*
%TD*%
D11*
%TO.C,R6*%
X53925000Y-38650000D03*
X54565000Y-38650000D03*
%TD*%
%TO.C,R5*%
X53930000Y-41100000D03*
X54570000Y-41100000D03*
%TD*%
D12*
%TO.C,SW1*%
X31300000Y-52300000D03*
X31300000Y-59100000D03*
D13*
X34050000Y-53200000D03*
X34050000Y-55700000D03*
X34050000Y-58200000D03*
%TD*%
D14*
%TO.C,R3*%
X44365000Y-55850000D03*
X43725000Y-55850000D03*
%TD*%
D10*
%TO.C,C1*%
X37600000Y-55800000D03*
X40600000Y-55800000D03*
%TD*%
D15*
%TO.C,Q1*%
X35930000Y-46760000D03*
D16*
X37200000Y-46760000D03*
X38470000Y-46760000D03*
%TD*%
D15*
%TO.C,Q2*%
X47630000Y-45810000D03*
D16*
X48900000Y-45810000D03*
X50170000Y-45810000D03*
%TD*%
D14*
%TO.C,R1*%
X37530000Y-51870000D03*
X36890000Y-51870000D03*
%TD*%
D11*
%TO.C,R8*%
X26675000Y-43050000D03*
X27315000Y-43050000D03*
%TD*%
D17*
%TO.C,J1*%
X55220000Y-55480000D03*
D18*
X60220000Y-55480000D03*
%TD*%
D11*
%TO.C,R9*%
X53980000Y-45750000D03*
X54620000Y-45750000D03*
%TD*%
D10*
%TO.C,C3*%
X58850000Y-36600000D03*
X61850000Y-36600000D03*
%TD*%
D19*
%TO.C,RV1*%
X43150000Y-31075000D03*
X52650000Y-31075000D03*
D20*
X45400000Y-38575000D03*
D21*
X47900000Y-38575000D03*
X50400000Y-38575000D03*
%TD*%
D22*
%TO.C,J2*%
X34850000Y-31300000D03*
X34850000Y-38300000D03*
D23*
X38550000Y-32200000D03*
X31150000Y-30200000D03*
D24*
X31150000Y-39600000D03*
%TD*%
D15*
%TO.C,Q3*%
X47410000Y-57750000D03*
D16*
X48680000Y-57750000D03*
X49950000Y-57750000D03*
%TD*%
D11*
%TO.C,R7*%
X26525000Y-32300000D03*
X27165000Y-32300000D03*
%TD*%
%TO.C,R4*%
X53980000Y-43450000D03*
X54620000Y-43450000D03*
%TD*%
M02*
