%TF.GenerationSoftware,KiCad,Pcbnew,10.0.1*%
%TF.CreationDate,2026-06-19T07:18:46-04:00*%
%TF.ProjectId,Synth,53796e74-682e-46b6-9963-61645f706362,rev?*%
%TF.SameCoordinates,Original*%
%TF.FileFunction,Copper,L2,Bot*%
%TF.FilePolarity,Positive*%
%FSLAX46Y46*%
G04 Gerber Fmt 4.6, Leading zero omitted, Abs format (unit mm)*
G04 Created by KiCad (PCBNEW 10.0.1) date 2026-06-19 07:18:46*
%MOMM*%
%LPD*%
G01*
G04 APERTURE LIST*
G04 Aperture macros list*
%AMRoundRect*
0 Rectangle with rounded corners*
0 $1 Rounding radius*
0 $2 $3 $4 $5 $6 $7 $8 $9 X,Y pos of 4 corners*
0 Add a 4 corners polygon primitive as box body*
4,1,4,$2,$3,$4,$5,$6,$7,$8,$9,$2,$3,0*
0 Add four circle primitives for the rounded corners*
1,1,$1+$1,$2,$3*
1,1,$1+$1,$4,$5*
1,1,$1+$1,$6,$7*
1,1,$1+$1,$8,$9*
0 Add four rect primitives between the rounded corners*
20,1,$1+$1,$2,$3,$4,$5,0*
20,1,$1+$1,$4,$5,$6,$7,0*
20,1,$1+$1,$6,$7,$8,$9,0*
20,1,$1+$1,$8,$9,$2,$3,0*%
G04 Aperture macros list end*
%TA.AperFunction,ComponentPad*%
%ADD10R,1.050000X1.500000*%
%TD*%
%TA.AperFunction,ComponentPad*%
%ADD11O,1.050000X1.500000*%
%TD*%
%TA.AperFunction,ComponentPad*%
%ADD12RoundRect,0.250000X-1.050000X-1.050000X1.050000X-1.050000X1.050000X1.050000X-1.050000X1.050000X0*%
%TD*%
%TA.AperFunction,ComponentPad*%
%ADD13C,2.600000*%
%TD*%
%TA.AperFunction,ComponentPad*%
%ADD14O,4.000000X4.000000*%
%TD*%
%TA.AperFunction,ComponentPad*%
%ADD15R,1.800000X1.800000*%
%TD*%
%TA.AperFunction,ComponentPad*%
%ADD16C,1.800000*%
%TD*%
%TA.AperFunction,ViaPad*%
%ADD17C,0.600000*%
%TD*%
%TA.AperFunction,Conductor*%
%ADD18C,0.200000*%
%TD*%
G04 APERTURE END LIST*
D10*
%TO.P,Q1,1,E_1*%
%TO.N,Net-(Q1-E)*%
X35930000Y-46760000D03*
D11*
%TO.P,Q1,2,B_2*%
%TO.N,EnvelopeOut*%
X37200000Y-46760000D03*
%TO.P,Q1,3,C_3*%
%TO.N,Net-(Q1-C)*%
X38470000Y-46760000D03*
%TD*%
D10*
%TO.P,Q2,1,E_1*%
%TO.N,Net-(Q2-E)*%
X47630000Y-45810000D03*
D11*
%TO.P,Q2,2,B_2*%
%TO.N,1*%
X48900000Y-45810000D03*
%TO.P,Q2,3,C_3*%
%TO.N,Net-(Q2-C)*%
X50170000Y-45810000D03*
%TD*%
D12*
%TO.P,J1,1,Pin_1_1*%
%TO.N,+9V*%
X55220000Y-55480000D03*
D13*
%TO.P,J1,2,Pin_2_2*%
%TO.N,GND*%
X60220000Y-55480000D03*
%TD*%
D14*
%TO.P,RV1,*%
%TO.N,*%
X43150000Y-31075000D03*
X52650000Y-31075000D03*
D15*
%TO.P,RV1,1,1_1*%
%TO.N,1*%
X45400000Y-38575000D03*
D16*
%TO.P,RV1,2,2_2*%
%TO.N,Net-(Q2-C)*%
X47900000Y-38575000D03*
%TO.P,RV1,3,3_3*%
%TO.N,2*%
X50400000Y-38575000D03*
%TD*%
D10*
%TO.P,Q3,1,E_1*%
%TO.N,OscOut*%
X47410000Y-57750000D03*
D11*
%TO.P,Q3,2,B_2*%
%TO.N,2*%
X48680000Y-57750000D03*
%TO.P,Q3,3,C_3*%
%TO.N,Net-(Q2-C)*%
X49950000Y-57750000D03*
%TD*%
D17*
%TO.N,Net-(Q2-C)*%
X52800000Y-47780000D03*
X56030000Y-44510000D03*
%TO.N,1*%
X47590000Y-42630000D03*
%TO.N,Net-(Q2-E)*%
X45670000Y-46510000D03*
X45520000Y-43820000D03*
%TO.N,Net-(R9-Pad2)*%
X52510000Y-44300000D03*
X54930000Y-44380000D03*
%TO.N,EnvelopeOut*%
X36810000Y-50550000D03*
X43670000Y-55030000D03*
X43650000Y-53620000D03*
%TO.N,2*%
X45860000Y-51880000D03*
X55700000Y-39670000D03*
%TD*%
%TO.N,Net-(Q2-C)*%
D18*
X50170000Y-45810000D02*
X50170000Y-57530000D01*
X56030000Y-44550000D02*
X56030000Y-44510000D01*
X50170000Y-40845000D02*
X47900000Y-38575000D01*
X50170000Y-57530000D02*
X49950000Y-57750000D01*
X52800000Y-47780000D02*
X56030000Y-44550000D01*
X50170000Y-45810000D02*
X50170000Y-40845000D01*
%TO.N,1*%
X47590000Y-42630000D02*
X48900000Y-43940000D01*
X48900000Y-43940000D02*
X48900000Y-45810000D01*
%TO.N,Net-(Q2-E)*%
X45520000Y-43820000D02*
X45670000Y-43970000D01*
X45670000Y-43970000D02*
X45670000Y-46510000D01*
%TO.N,Net-(R9-Pad2)*%
X52510000Y-44300000D02*
X52590000Y-44380000D01*
X52590000Y-44380000D02*
X54930000Y-44380000D01*
%TO.N,EnvelopeOut*%
X43650000Y-53620000D02*
X43650000Y-55010000D01*
X37200000Y-50160000D02*
X36810000Y-50550000D01*
X37200000Y-46760000D02*
X37200000Y-50160000D01*
X43650000Y-55010000D02*
X43670000Y-55030000D01*
%TO.N,2*%
X51495000Y-39670000D02*
X49200000Y-37375000D01*
X51495000Y-39670000D02*
X50400000Y-38575000D01*
X47402943Y-37375000D02*
X46700000Y-38077943D01*
X46700000Y-51040000D02*
X45860000Y-51880000D01*
X46700000Y-38077943D02*
X46700000Y-51040000D01*
X49200000Y-37375000D02*
X47402943Y-37375000D01*
X55700000Y-39670000D02*
X51495000Y-39670000D01*
%TD*%
M02*
