%TF.GenerationSoftware,KiCad,Pcbnew,10.0.1*%
%TF.CreationDate,2026-06-19T07:18:46-04:00*%
%TF.ProjectId,Synth,53796e74-682e-46b6-9963-61645f706362,rev?*%
%TF.SameCoordinates,Original*%
%TF.FileFunction,Legend,Top*%
%TF.FilePolarity,Positive*%
%FSLAX46Y46*%
G04 Gerber Fmt 4.6, Leading zero omitted, Abs format (unit mm)*
G04 Created by KiCad (PCBNEW 10.0.1) date 2026-06-19 07:18:46*
%MOMM*%
%LPD*%
G01*
G04 APERTURE LIST*
%ADD10C,0.150000*%
%ADD11C,0.120000*%
G04 APERTURE END LIST*
D10*
X28683333Y-50009580D02*
X28635714Y-50057200D01*
X28635714Y-50057200D02*
X28492857Y-50104819D01*
X28492857Y-50104819D02*
X28397619Y-50104819D01*
X28397619Y-50104819D02*
X28254762Y-50057200D01*
X28254762Y-50057200D02*
X28159524Y-49961961D01*
X28159524Y-49961961D02*
X28111905Y-49866723D01*
X28111905Y-49866723D02*
X28064286Y-49676247D01*
X28064286Y-49676247D02*
X28064286Y-49533390D01*
X28064286Y-49533390D02*
X28111905Y-49342914D01*
X28111905Y-49342914D02*
X28159524Y-49247676D01*
X28159524Y-49247676D02*
X28254762Y-49152438D01*
X28254762Y-49152438D02*
X28397619Y-49104819D01*
X28397619Y-49104819D02*
X28492857Y-49104819D01*
X28492857Y-49104819D02*
X28635714Y-49152438D01*
X28635714Y-49152438D02*
X28683333Y-49200057D01*
X29064286Y-49200057D02*
X29111905Y-49152438D01*
X29111905Y-49152438D02*
X29207143Y-49104819D01*
X29207143Y-49104819D02*
X29445238Y-49104819D01*
X29445238Y-49104819D02*
X29540476Y-49152438D01*
X29540476Y-49152438D02*
X29588095Y-49200057D01*
X29588095Y-49200057D02*
X29635714Y-49295295D01*
X29635714Y-49295295D02*
X29635714Y-49390533D01*
X29635714Y-49390533D02*
X29588095Y-49533390D01*
X29588095Y-49533390D02*
X29016667Y-50104819D01*
X29016667Y-50104819D02*
X29635714Y-50104819D01*
X43063333Y-48219580D02*
X43015714Y-48267200D01*
X43015714Y-48267200D02*
X42872857Y-48314819D01*
X42872857Y-48314819D02*
X42777619Y-48314819D01*
X42777619Y-48314819D02*
X42634762Y-48267200D01*
X42634762Y-48267200D02*
X42539524Y-48171961D01*
X42539524Y-48171961D02*
X42491905Y-48076723D01*
X42491905Y-48076723D02*
X42444286Y-47886247D01*
X42444286Y-47886247D02*
X42444286Y-47743390D01*
X42444286Y-47743390D02*
X42491905Y-47552914D01*
X42491905Y-47552914D02*
X42539524Y-47457676D01*
X42539524Y-47457676D02*
X42634762Y-47362438D01*
X42634762Y-47362438D02*
X42777619Y-47314819D01*
X42777619Y-47314819D02*
X42872857Y-47314819D01*
X42872857Y-47314819D02*
X43015714Y-47362438D01*
X43015714Y-47362438D02*
X43063333Y-47410057D01*
X43920476Y-47648152D02*
X43920476Y-48314819D01*
X43682381Y-47267200D02*
X43444286Y-47981485D01*
X43444286Y-47981485D02*
X44063333Y-47981485D01*
X55933333Y-39054819D02*
X55600000Y-38578628D01*
X55361905Y-39054819D02*
X55361905Y-38054819D01*
X55361905Y-38054819D02*
X55742857Y-38054819D01*
X55742857Y-38054819D02*
X55838095Y-38102438D01*
X55838095Y-38102438D02*
X55885714Y-38150057D01*
X55885714Y-38150057D02*
X55933333Y-38245295D01*
X55933333Y-38245295D02*
X55933333Y-38388152D01*
X55933333Y-38388152D02*
X55885714Y-38483390D01*
X55885714Y-38483390D02*
X55838095Y-38531009D01*
X55838095Y-38531009D02*
X55742857Y-38578628D01*
X55742857Y-38578628D02*
X55361905Y-38578628D01*
X56790476Y-38054819D02*
X56600000Y-38054819D01*
X56600000Y-38054819D02*
X56504762Y-38102438D01*
X56504762Y-38102438D02*
X56457143Y-38150057D01*
X56457143Y-38150057D02*
X56361905Y-38292914D01*
X56361905Y-38292914D02*
X56314286Y-38483390D01*
X56314286Y-38483390D02*
X56314286Y-38864342D01*
X56314286Y-38864342D02*
X56361905Y-38959580D01*
X56361905Y-38959580D02*
X56409524Y-39007200D01*
X56409524Y-39007200D02*
X56504762Y-39054819D01*
X56504762Y-39054819D02*
X56695238Y-39054819D01*
X56695238Y-39054819D02*
X56790476Y-39007200D01*
X56790476Y-39007200D02*
X56838095Y-38959580D01*
X56838095Y-38959580D02*
X56885714Y-38864342D01*
X56885714Y-38864342D02*
X56885714Y-38626247D01*
X56885714Y-38626247D02*
X56838095Y-38531009D01*
X56838095Y-38531009D02*
X56790476Y-38483390D01*
X56790476Y-38483390D02*
X56695238Y-38435771D01*
X56695238Y-38435771D02*
X56504762Y-38435771D01*
X56504762Y-38435771D02*
X56409524Y-38483390D01*
X56409524Y-38483390D02*
X56361905Y-38531009D01*
X56361905Y-38531009D02*
X56314286Y-38626247D01*
X56228333Y-41454819D02*
X55895000Y-40978628D01*
X55656905Y-41454819D02*
X55656905Y-40454819D01*
X55656905Y-40454819D02*
X56037857Y-40454819D01*
X56037857Y-40454819D02*
X56133095Y-40502438D01*
X56133095Y-40502438D02*
X56180714Y-40550057D01*
X56180714Y-40550057D02*
X56228333Y-40645295D01*
X56228333Y-40645295D02*
X56228333Y-40788152D01*
X56228333Y-40788152D02*
X56180714Y-40883390D01*
X56180714Y-40883390D02*
X56133095Y-40931009D01*
X56133095Y-40931009D02*
X56037857Y-40978628D01*
X56037857Y-40978628D02*
X55656905Y-40978628D01*
X57133095Y-40454819D02*
X56656905Y-40454819D01*
X56656905Y-40454819D02*
X56609286Y-40931009D01*
X56609286Y-40931009D02*
X56656905Y-40883390D01*
X56656905Y-40883390D02*
X56752143Y-40835771D01*
X56752143Y-40835771D02*
X56990238Y-40835771D01*
X56990238Y-40835771D02*
X57085476Y-40883390D01*
X57085476Y-40883390D02*
X57133095Y-40931009D01*
X57133095Y-40931009D02*
X57180714Y-41026247D01*
X57180714Y-41026247D02*
X57180714Y-41264342D01*
X57180714Y-41264342D02*
X57133095Y-41359580D01*
X57133095Y-41359580D02*
X57085476Y-41407200D01*
X57085476Y-41407200D02*
X56990238Y-41454819D01*
X56990238Y-41454819D02*
X56752143Y-41454819D01*
X56752143Y-41454819D02*
X56656905Y-41407200D01*
X56656905Y-41407200D02*
X56609286Y-41359580D01*
X36507201Y-57033332D02*
X36554820Y-56890475D01*
X36554820Y-56890475D02*
X36554820Y-56652380D01*
X36554820Y-56652380D02*
X36507201Y-56557142D01*
X36507201Y-56557142D02*
X36459581Y-56509523D01*
X36459581Y-56509523D02*
X36364343Y-56461904D01*
X36364343Y-56461904D02*
X36269105Y-56461904D01*
X36269105Y-56461904D02*
X36173867Y-56509523D01*
X36173867Y-56509523D02*
X36126248Y-56557142D01*
X36126248Y-56557142D02*
X36078629Y-56652380D01*
X36078629Y-56652380D02*
X36031010Y-56842856D01*
X36031010Y-56842856D02*
X35983391Y-56938094D01*
X35983391Y-56938094D02*
X35935772Y-56985713D01*
X35935772Y-56985713D02*
X35840534Y-57033332D01*
X35840534Y-57033332D02*
X35745296Y-57033332D01*
X35745296Y-57033332D02*
X35650058Y-56985713D01*
X35650058Y-56985713D02*
X35602439Y-56938094D01*
X35602439Y-56938094D02*
X35554820Y-56842856D01*
X35554820Y-56842856D02*
X35554820Y-56604761D01*
X35554820Y-56604761D02*
X35602439Y-56461904D01*
X35554820Y-56128570D02*
X36554820Y-55890475D01*
X36554820Y-55890475D02*
X35840534Y-55699999D01*
X35840534Y-55699999D02*
X36554820Y-55509523D01*
X36554820Y-55509523D02*
X35554820Y-55271428D01*
X36554820Y-54366666D02*
X36554820Y-54938094D01*
X36554820Y-54652380D02*
X35554820Y-54652380D01*
X35554820Y-54652380D02*
X35697677Y-54747618D01*
X35697677Y-54747618D02*
X35792915Y-54842856D01*
X35792915Y-54842856D02*
X35840534Y-54938094D01*
X43878333Y-57354819D02*
X43545000Y-56878628D01*
X43306905Y-57354819D02*
X43306905Y-56354819D01*
X43306905Y-56354819D02*
X43687857Y-56354819D01*
X43687857Y-56354819D02*
X43783095Y-56402438D01*
X43783095Y-56402438D02*
X43830714Y-56450057D01*
X43830714Y-56450057D02*
X43878333Y-56545295D01*
X43878333Y-56545295D02*
X43878333Y-56688152D01*
X43878333Y-56688152D02*
X43830714Y-56783390D01*
X43830714Y-56783390D02*
X43783095Y-56831009D01*
X43783095Y-56831009D02*
X43687857Y-56878628D01*
X43687857Y-56878628D02*
X43306905Y-56878628D01*
X44211667Y-56354819D02*
X44830714Y-56354819D01*
X44830714Y-56354819D02*
X44497381Y-56735771D01*
X44497381Y-56735771D02*
X44640238Y-56735771D01*
X44640238Y-56735771D02*
X44735476Y-56783390D01*
X44735476Y-56783390D02*
X44783095Y-56831009D01*
X44783095Y-56831009D02*
X44830714Y-56926247D01*
X44830714Y-56926247D02*
X44830714Y-57164342D01*
X44830714Y-57164342D02*
X44783095Y-57259580D01*
X44783095Y-57259580D02*
X44735476Y-57307200D01*
X44735476Y-57307200D02*
X44640238Y-57354819D01*
X44640238Y-57354819D02*
X44354524Y-57354819D01*
X44354524Y-57354819D02*
X44259286Y-57307200D01*
X44259286Y-57307200D02*
X44211667Y-57259580D01*
X38933333Y-53459580D02*
X38885714Y-53507200D01*
X38885714Y-53507200D02*
X38742857Y-53554819D01*
X38742857Y-53554819D02*
X38647619Y-53554819D01*
X38647619Y-53554819D02*
X38504762Y-53507200D01*
X38504762Y-53507200D02*
X38409524Y-53411961D01*
X38409524Y-53411961D02*
X38361905Y-53316723D01*
X38361905Y-53316723D02*
X38314286Y-53126247D01*
X38314286Y-53126247D02*
X38314286Y-52983390D01*
X38314286Y-52983390D02*
X38361905Y-52792914D01*
X38361905Y-52792914D02*
X38409524Y-52697676D01*
X38409524Y-52697676D02*
X38504762Y-52602438D01*
X38504762Y-52602438D02*
X38647619Y-52554819D01*
X38647619Y-52554819D02*
X38742857Y-52554819D01*
X38742857Y-52554819D02*
X38885714Y-52602438D01*
X38885714Y-52602438D02*
X38933333Y-52650057D01*
X39885714Y-53554819D02*
X39314286Y-53554819D01*
X39600000Y-53554819D02*
X39600000Y-52554819D01*
X39600000Y-52554819D02*
X39504762Y-52697676D01*
X39504762Y-52697676D02*
X39409524Y-52792914D01*
X39409524Y-52792914D02*
X39314286Y-52840533D01*
X37104761Y-43750057D02*
X37009523Y-43702438D01*
X37009523Y-43702438D02*
X36914285Y-43607200D01*
X36914285Y-43607200D02*
X36771428Y-43464342D01*
X36771428Y-43464342D02*
X36676190Y-43416723D01*
X36676190Y-43416723D02*
X36580952Y-43416723D01*
X36628571Y-43654819D02*
X36533333Y-43607200D01*
X36533333Y-43607200D02*
X36438095Y-43511961D01*
X36438095Y-43511961D02*
X36390476Y-43321485D01*
X36390476Y-43321485D02*
X36390476Y-42988152D01*
X36390476Y-42988152D02*
X36438095Y-42797676D01*
X36438095Y-42797676D02*
X36533333Y-42702438D01*
X36533333Y-42702438D02*
X36628571Y-42654819D01*
X36628571Y-42654819D02*
X36819047Y-42654819D01*
X36819047Y-42654819D02*
X36914285Y-42702438D01*
X36914285Y-42702438D02*
X37009523Y-42797676D01*
X37009523Y-42797676D02*
X37057142Y-42988152D01*
X37057142Y-42988152D02*
X37057142Y-43321485D01*
X37057142Y-43321485D02*
X37009523Y-43511961D01*
X37009523Y-43511961D02*
X36914285Y-43607200D01*
X36914285Y-43607200D02*
X36819047Y-43654819D01*
X36819047Y-43654819D02*
X36628571Y-43654819D01*
X38009523Y-43654819D02*
X37438095Y-43654819D01*
X37723809Y-43654819D02*
X37723809Y-42654819D01*
X37723809Y-42654819D02*
X37628571Y-42797676D01*
X37628571Y-42797676D02*
X37533333Y-42892914D01*
X37533333Y-42892914D02*
X37438095Y-42940533D01*
X48804761Y-42800057D02*
X48709523Y-42752438D01*
X48709523Y-42752438D02*
X48614285Y-42657200D01*
X48614285Y-42657200D02*
X48471428Y-42514342D01*
X48471428Y-42514342D02*
X48376190Y-42466723D01*
X48376190Y-42466723D02*
X48280952Y-42466723D01*
X48328571Y-42704819D02*
X48233333Y-42657200D01*
X48233333Y-42657200D02*
X48138095Y-42561961D01*
X48138095Y-42561961D02*
X48090476Y-42371485D01*
X48090476Y-42371485D02*
X48090476Y-42038152D01*
X48090476Y-42038152D02*
X48138095Y-41847676D01*
X48138095Y-41847676D02*
X48233333Y-41752438D01*
X48233333Y-41752438D02*
X48328571Y-41704819D01*
X48328571Y-41704819D02*
X48519047Y-41704819D01*
X48519047Y-41704819D02*
X48614285Y-41752438D01*
X48614285Y-41752438D02*
X48709523Y-41847676D01*
X48709523Y-41847676D02*
X48757142Y-42038152D01*
X48757142Y-42038152D02*
X48757142Y-42371485D01*
X48757142Y-42371485D02*
X48709523Y-42561961D01*
X48709523Y-42561961D02*
X48614285Y-42657200D01*
X48614285Y-42657200D02*
X48519047Y-42704819D01*
X48519047Y-42704819D02*
X48328571Y-42704819D01*
X49138095Y-41800057D02*
X49185714Y-41752438D01*
X49185714Y-41752438D02*
X49280952Y-41704819D01*
X49280952Y-41704819D02*
X49519047Y-41704819D01*
X49519047Y-41704819D02*
X49614285Y-41752438D01*
X49614285Y-41752438D02*
X49661904Y-41800057D01*
X49661904Y-41800057D02*
X49709523Y-41895295D01*
X49709523Y-41895295D02*
X49709523Y-41990533D01*
X49709523Y-41990533D02*
X49661904Y-42133390D01*
X49661904Y-42133390D02*
X49090476Y-42704819D01*
X49090476Y-42704819D02*
X49709523Y-42704819D01*
X37043333Y-53374819D02*
X36710000Y-52898628D01*
X36471905Y-53374819D02*
X36471905Y-52374819D01*
X36471905Y-52374819D02*
X36852857Y-52374819D01*
X36852857Y-52374819D02*
X36948095Y-52422438D01*
X36948095Y-52422438D02*
X36995714Y-52470057D01*
X36995714Y-52470057D02*
X37043333Y-52565295D01*
X37043333Y-52565295D02*
X37043333Y-52708152D01*
X37043333Y-52708152D02*
X36995714Y-52803390D01*
X36995714Y-52803390D02*
X36948095Y-52851009D01*
X36948095Y-52851009D02*
X36852857Y-52898628D01*
X36852857Y-52898628D02*
X36471905Y-52898628D01*
X37995714Y-53374819D02*
X37424286Y-53374819D01*
X37710000Y-53374819D02*
X37710000Y-52374819D01*
X37710000Y-52374819D02*
X37614762Y-52517676D01*
X37614762Y-52517676D02*
X37519524Y-52612914D01*
X37519524Y-52612914D02*
X37424286Y-52660533D01*
X26828333Y-42454819D02*
X26495000Y-41978628D01*
X26256905Y-42454819D02*
X26256905Y-41454819D01*
X26256905Y-41454819D02*
X26637857Y-41454819D01*
X26637857Y-41454819D02*
X26733095Y-41502438D01*
X26733095Y-41502438D02*
X26780714Y-41550057D01*
X26780714Y-41550057D02*
X26828333Y-41645295D01*
X26828333Y-41645295D02*
X26828333Y-41788152D01*
X26828333Y-41788152D02*
X26780714Y-41883390D01*
X26780714Y-41883390D02*
X26733095Y-41931009D01*
X26733095Y-41931009D02*
X26637857Y-41978628D01*
X26637857Y-41978628D02*
X26256905Y-41978628D01*
X27399762Y-41883390D02*
X27304524Y-41835771D01*
X27304524Y-41835771D02*
X27256905Y-41788152D01*
X27256905Y-41788152D02*
X27209286Y-41692914D01*
X27209286Y-41692914D02*
X27209286Y-41645295D01*
X27209286Y-41645295D02*
X27256905Y-41550057D01*
X27256905Y-41550057D02*
X27304524Y-41502438D01*
X27304524Y-41502438D02*
X27399762Y-41454819D01*
X27399762Y-41454819D02*
X27590238Y-41454819D01*
X27590238Y-41454819D02*
X27685476Y-41502438D01*
X27685476Y-41502438D02*
X27733095Y-41550057D01*
X27733095Y-41550057D02*
X27780714Y-41645295D01*
X27780714Y-41645295D02*
X27780714Y-41692914D01*
X27780714Y-41692914D02*
X27733095Y-41788152D01*
X27733095Y-41788152D02*
X27685476Y-41835771D01*
X27685476Y-41835771D02*
X27590238Y-41883390D01*
X27590238Y-41883390D02*
X27399762Y-41883390D01*
X27399762Y-41883390D02*
X27304524Y-41931009D01*
X27304524Y-41931009D02*
X27256905Y-41978628D01*
X27256905Y-41978628D02*
X27209286Y-42073866D01*
X27209286Y-42073866D02*
X27209286Y-42264342D01*
X27209286Y-42264342D02*
X27256905Y-42359580D01*
X27256905Y-42359580D02*
X27304524Y-42407200D01*
X27304524Y-42407200D02*
X27399762Y-42454819D01*
X27399762Y-42454819D02*
X27590238Y-42454819D01*
X27590238Y-42454819D02*
X27685476Y-42407200D01*
X27685476Y-42407200D02*
X27733095Y-42359580D01*
X27733095Y-42359580D02*
X27780714Y-42264342D01*
X27780714Y-42264342D02*
X27780714Y-42073866D01*
X27780714Y-42073866D02*
X27733095Y-41978628D01*
X27733095Y-41978628D02*
X27685476Y-41931009D01*
X27685476Y-41931009D02*
X27590238Y-41883390D01*
X57386666Y-49814819D02*
X57386666Y-50529104D01*
X57386666Y-50529104D02*
X57339047Y-50671961D01*
X57339047Y-50671961D02*
X57243809Y-50767200D01*
X57243809Y-50767200D02*
X57100952Y-50814819D01*
X57100952Y-50814819D02*
X57005714Y-50814819D01*
X58386666Y-50814819D02*
X57815238Y-50814819D01*
X58100952Y-50814819D02*
X58100952Y-49814819D01*
X58100952Y-49814819D02*
X58005714Y-49957676D01*
X58005714Y-49957676D02*
X57910476Y-50052914D01*
X57910476Y-50052914D02*
X57815238Y-50100533D01*
X55813333Y-46154819D02*
X55480000Y-45678628D01*
X55241905Y-46154819D02*
X55241905Y-45154819D01*
X55241905Y-45154819D02*
X55622857Y-45154819D01*
X55622857Y-45154819D02*
X55718095Y-45202438D01*
X55718095Y-45202438D02*
X55765714Y-45250057D01*
X55765714Y-45250057D02*
X55813333Y-45345295D01*
X55813333Y-45345295D02*
X55813333Y-45488152D01*
X55813333Y-45488152D02*
X55765714Y-45583390D01*
X55765714Y-45583390D02*
X55718095Y-45631009D01*
X55718095Y-45631009D02*
X55622857Y-45678628D01*
X55622857Y-45678628D02*
X55241905Y-45678628D01*
X56289524Y-46154819D02*
X56480000Y-46154819D01*
X56480000Y-46154819D02*
X56575238Y-46107200D01*
X56575238Y-46107200D02*
X56622857Y-46059580D01*
X56622857Y-46059580D02*
X56718095Y-45916723D01*
X56718095Y-45916723D02*
X56765714Y-45726247D01*
X56765714Y-45726247D02*
X56765714Y-45345295D01*
X56765714Y-45345295D02*
X56718095Y-45250057D01*
X56718095Y-45250057D02*
X56670476Y-45202438D01*
X56670476Y-45202438D02*
X56575238Y-45154819D01*
X56575238Y-45154819D02*
X56384762Y-45154819D01*
X56384762Y-45154819D02*
X56289524Y-45202438D01*
X56289524Y-45202438D02*
X56241905Y-45250057D01*
X56241905Y-45250057D02*
X56194286Y-45345295D01*
X56194286Y-45345295D02*
X56194286Y-45583390D01*
X56194286Y-45583390D02*
X56241905Y-45678628D01*
X56241905Y-45678628D02*
X56289524Y-45726247D01*
X56289524Y-45726247D02*
X56384762Y-45773866D01*
X56384762Y-45773866D02*
X56575238Y-45773866D01*
X56575238Y-45773866D02*
X56670476Y-45726247D01*
X56670476Y-45726247D02*
X56718095Y-45678628D01*
X56718095Y-45678628D02*
X56765714Y-45583390D01*
X60183333Y-34259580D02*
X60135714Y-34307200D01*
X60135714Y-34307200D02*
X59992857Y-34354819D01*
X59992857Y-34354819D02*
X59897619Y-34354819D01*
X59897619Y-34354819D02*
X59754762Y-34307200D01*
X59754762Y-34307200D02*
X59659524Y-34211961D01*
X59659524Y-34211961D02*
X59611905Y-34116723D01*
X59611905Y-34116723D02*
X59564286Y-33926247D01*
X59564286Y-33926247D02*
X59564286Y-33783390D01*
X59564286Y-33783390D02*
X59611905Y-33592914D01*
X59611905Y-33592914D02*
X59659524Y-33497676D01*
X59659524Y-33497676D02*
X59754762Y-33402438D01*
X59754762Y-33402438D02*
X59897619Y-33354819D01*
X59897619Y-33354819D02*
X59992857Y-33354819D01*
X59992857Y-33354819D02*
X60135714Y-33402438D01*
X60135714Y-33402438D02*
X60183333Y-33450057D01*
X60516667Y-33354819D02*
X61135714Y-33354819D01*
X61135714Y-33354819D02*
X60802381Y-33735771D01*
X60802381Y-33735771D02*
X60945238Y-33735771D01*
X60945238Y-33735771D02*
X61040476Y-33783390D01*
X61040476Y-33783390D02*
X61088095Y-33831009D01*
X61088095Y-33831009D02*
X61135714Y-33926247D01*
X61135714Y-33926247D02*
X61135714Y-34164342D01*
X61135714Y-34164342D02*
X61088095Y-34259580D01*
X61088095Y-34259580D02*
X61040476Y-34307200D01*
X61040476Y-34307200D02*
X60945238Y-34354819D01*
X60945238Y-34354819D02*
X60659524Y-34354819D01*
X60659524Y-34354819D02*
X60564286Y-34307200D01*
X60564286Y-34307200D02*
X60516667Y-34259580D01*
X47304761Y-25529819D02*
X46971428Y-25053628D01*
X46733333Y-25529819D02*
X46733333Y-24529819D01*
X46733333Y-24529819D02*
X47114285Y-24529819D01*
X47114285Y-24529819D02*
X47209523Y-24577438D01*
X47209523Y-24577438D02*
X47257142Y-24625057D01*
X47257142Y-24625057D02*
X47304761Y-24720295D01*
X47304761Y-24720295D02*
X47304761Y-24863152D01*
X47304761Y-24863152D02*
X47257142Y-24958390D01*
X47257142Y-24958390D02*
X47209523Y-25006009D01*
X47209523Y-25006009D02*
X47114285Y-25053628D01*
X47114285Y-25053628D02*
X46733333Y-25053628D01*
X47590476Y-24529819D02*
X47923809Y-25529819D01*
X47923809Y-25529819D02*
X48257142Y-24529819D01*
X49114285Y-25529819D02*
X48542857Y-25529819D01*
X48828571Y-25529819D02*
X48828571Y-24529819D01*
X48828571Y-24529819D02*
X48733333Y-24672676D01*
X48733333Y-24672676D02*
X48638095Y-24767914D01*
X48638095Y-24767914D02*
X48542857Y-24815533D01*
X34516666Y-23354819D02*
X34516666Y-24069104D01*
X34516666Y-24069104D02*
X34469047Y-24211961D01*
X34469047Y-24211961D02*
X34373809Y-24307200D01*
X34373809Y-24307200D02*
X34230952Y-24354819D01*
X34230952Y-24354819D02*
X34135714Y-24354819D01*
X34945238Y-23450057D02*
X34992857Y-23402438D01*
X34992857Y-23402438D02*
X35088095Y-23354819D01*
X35088095Y-23354819D02*
X35326190Y-23354819D01*
X35326190Y-23354819D02*
X35421428Y-23402438D01*
X35421428Y-23402438D02*
X35469047Y-23450057D01*
X35469047Y-23450057D02*
X35516666Y-23545295D01*
X35516666Y-23545295D02*
X35516666Y-23640533D01*
X35516666Y-23640533D02*
X35469047Y-23783390D01*
X35469047Y-23783390D02*
X34897619Y-24354819D01*
X34897619Y-24354819D02*
X35516666Y-24354819D01*
X48584761Y-54740057D02*
X48489523Y-54692438D01*
X48489523Y-54692438D02*
X48394285Y-54597200D01*
X48394285Y-54597200D02*
X48251428Y-54454342D01*
X48251428Y-54454342D02*
X48156190Y-54406723D01*
X48156190Y-54406723D02*
X48060952Y-54406723D01*
X48108571Y-54644819D02*
X48013333Y-54597200D01*
X48013333Y-54597200D02*
X47918095Y-54501961D01*
X47918095Y-54501961D02*
X47870476Y-54311485D01*
X47870476Y-54311485D02*
X47870476Y-53978152D01*
X47870476Y-53978152D02*
X47918095Y-53787676D01*
X47918095Y-53787676D02*
X48013333Y-53692438D01*
X48013333Y-53692438D02*
X48108571Y-53644819D01*
X48108571Y-53644819D02*
X48299047Y-53644819D01*
X48299047Y-53644819D02*
X48394285Y-53692438D01*
X48394285Y-53692438D02*
X48489523Y-53787676D01*
X48489523Y-53787676D02*
X48537142Y-53978152D01*
X48537142Y-53978152D02*
X48537142Y-54311485D01*
X48537142Y-54311485D02*
X48489523Y-54501961D01*
X48489523Y-54501961D02*
X48394285Y-54597200D01*
X48394285Y-54597200D02*
X48299047Y-54644819D01*
X48299047Y-54644819D02*
X48108571Y-54644819D01*
X48870476Y-53644819D02*
X49489523Y-53644819D01*
X49489523Y-53644819D02*
X49156190Y-54025771D01*
X49156190Y-54025771D02*
X49299047Y-54025771D01*
X49299047Y-54025771D02*
X49394285Y-54073390D01*
X49394285Y-54073390D02*
X49441904Y-54121009D01*
X49441904Y-54121009D02*
X49489523Y-54216247D01*
X49489523Y-54216247D02*
X49489523Y-54454342D01*
X49489523Y-54454342D02*
X49441904Y-54549580D01*
X49441904Y-54549580D02*
X49394285Y-54597200D01*
X49394285Y-54597200D02*
X49299047Y-54644819D01*
X49299047Y-54644819D02*
X49013333Y-54644819D01*
X49013333Y-54644819D02*
X48918095Y-54597200D01*
X48918095Y-54597200D02*
X48870476Y-54549580D01*
X26678333Y-31704819D02*
X26345000Y-31228628D01*
X26106905Y-31704819D02*
X26106905Y-30704819D01*
X26106905Y-30704819D02*
X26487857Y-30704819D01*
X26487857Y-30704819D02*
X26583095Y-30752438D01*
X26583095Y-30752438D02*
X26630714Y-30800057D01*
X26630714Y-30800057D02*
X26678333Y-30895295D01*
X26678333Y-30895295D02*
X26678333Y-31038152D01*
X26678333Y-31038152D02*
X26630714Y-31133390D01*
X26630714Y-31133390D02*
X26583095Y-31181009D01*
X26583095Y-31181009D02*
X26487857Y-31228628D01*
X26487857Y-31228628D02*
X26106905Y-31228628D01*
X27011667Y-30704819D02*
X27678333Y-30704819D01*
X27678333Y-30704819D02*
X27249762Y-31704819D01*
X56138333Y-43904819D02*
X55805000Y-43428628D01*
X55566905Y-43904819D02*
X55566905Y-42904819D01*
X55566905Y-42904819D02*
X55947857Y-42904819D01*
X55947857Y-42904819D02*
X56043095Y-42952438D01*
X56043095Y-42952438D02*
X56090714Y-43000057D01*
X56090714Y-43000057D02*
X56138333Y-43095295D01*
X56138333Y-43095295D02*
X56138333Y-43238152D01*
X56138333Y-43238152D02*
X56090714Y-43333390D01*
X56090714Y-43333390D02*
X56043095Y-43381009D01*
X56043095Y-43381009D02*
X55947857Y-43428628D01*
X55947857Y-43428628D02*
X55566905Y-43428628D01*
X56995476Y-43238152D02*
X56995476Y-43904819D01*
X56757381Y-42857200D02*
X56519286Y-43571485D01*
X56519286Y-43571485D02*
X57138333Y-43571485D01*
%TO.C,C2*%
D11*
X27090000Y-45190000D02*
X27090000Y-45890000D01*
X27090000Y-48710000D02*
X27090000Y-48010000D01*
X29720563Y-45190000D02*
X27090000Y-45190000D01*
X29720563Y-48710000D02*
X27090000Y-48710000D01*
X30420563Y-45890000D02*
X29720563Y-45190000D01*
X30420563Y-48010000D02*
X29720563Y-48710000D01*
X31037500Y-48572500D02*
X31037500Y-48197500D01*
X31225000Y-48385000D02*
X30850000Y-48385000D01*
%TO.C,C4*%
X40855000Y-49125000D02*
X41230000Y-49125000D01*
X41042500Y-48937500D02*
X41042500Y-49312500D01*
X41659437Y-49500000D02*
X42359437Y-48800000D01*
X41659437Y-51620000D02*
X42359437Y-52320000D01*
X42359437Y-48800000D02*
X44990000Y-48800000D01*
X42359437Y-52320000D02*
X44990000Y-52320000D01*
X44990000Y-48800000D02*
X44990000Y-49500000D01*
X44990000Y-52320000D02*
X44990000Y-51620000D01*
%TO.C,SW1*%
X30900000Y-51100000D02*
X33200000Y-51100000D01*
X33200000Y-51100000D02*
X33200000Y-52300000D01*
X33200000Y-54800000D02*
X33200000Y-54100000D01*
X33200000Y-57300000D02*
X33200000Y-56600000D01*
X33200000Y-59100000D02*
X33200000Y-60300000D01*
X33200000Y-60300000D02*
X30900000Y-60300000D01*
%TO.C,C1*%
X36725000Y-54365000D02*
X37100000Y-54365000D01*
X36912500Y-54177500D02*
X36912500Y-54552500D01*
X37529437Y-54740000D02*
X38229437Y-54040000D01*
X37529437Y-56860000D02*
X38229437Y-57560000D01*
X38229437Y-54040000D02*
X40860000Y-54040000D01*
X38229437Y-57560000D02*
X40860000Y-57560000D01*
X40860000Y-54040000D02*
X40860000Y-54740000D01*
X40860000Y-57560000D02*
X40860000Y-56860000D01*
%TO.C,Q1*%
X35400000Y-48610000D02*
X39000000Y-48610000D01*
X35361522Y-48598478D02*
G75*
G02*
X37200000Y-44159999I1838478J1838478D01*
G01*
X37200000Y-44160000D02*
G75*
G02*
X39038478Y-48598478I0J-2600000D01*
G01*
%TO.C,Q2*%
X47100000Y-47660000D02*
X50700000Y-47660000D01*
X47061522Y-47648478D02*
G75*
G02*
X48900000Y-43209999I1838478J1838478D01*
G01*
X48900000Y-43210000D02*
G75*
G02*
X50738478Y-47648478I0J-2600000D01*
G01*
%TO.C,J1*%
X52600000Y-51360000D02*
X62840000Y-51360000D01*
X52600000Y-58980000D02*
X62840000Y-58980000D01*
X52600000Y-60080000D02*
X62840000Y-60080000D01*
X52600000Y-60600000D02*
X52600000Y-51360000D01*
X54920000Y-60600000D02*
X52600000Y-60600000D01*
X62840000Y-51360000D02*
X62840000Y-60600000D01*
X62840000Y-60600000D02*
X55520000Y-60600000D01*
X55660000Y-61210000D02*
X54780000Y-61210000D01*
X55220000Y-60600000D01*
X55660000Y-61210000D01*
G36*
X55660000Y-61210000D02*
G01*
X54780000Y-61210000D01*
X55220000Y-60600000D01*
X55660000Y-61210000D01*
G37*
%TO.C,C3*%
X57975000Y-35165000D02*
X58350000Y-35165000D01*
X58162500Y-34977500D02*
X58162500Y-35352500D01*
X58779437Y-35540000D02*
X59479437Y-34840000D01*
X58779437Y-37660000D02*
X59479437Y-38360000D01*
X59479437Y-34840000D02*
X62110000Y-34840000D01*
X59479437Y-38360000D02*
X62110000Y-38360000D01*
X62110000Y-34840000D02*
X62110000Y-35540000D01*
X62110000Y-38360000D02*
X62110000Y-37660000D01*
%TO.C,RV1*%
X42430000Y-26105000D02*
X42430000Y-28825000D01*
X42430000Y-33325000D02*
X42430000Y-37695000D01*
X44250000Y-37695000D02*
X42430000Y-37695000D01*
X53370000Y-26105000D02*
X42430000Y-26105000D01*
X53370000Y-26105000D02*
X53370000Y-28825000D01*
X53370000Y-33325000D02*
X53370000Y-37695000D01*
X53370000Y-37695000D02*
X51550000Y-37695000D01*
%TO.C,J2*%
X31750000Y-27700000D02*
X32250000Y-27700000D01*
X31750000Y-28900000D02*
X29750000Y-28900000D01*
X31750000Y-28900000D02*
X31750000Y-27700000D01*
X31750000Y-31500000D02*
X29750000Y-31500000D01*
X31750000Y-38000000D02*
X31750000Y-31500000D01*
X31750000Y-42400000D02*
X31750000Y-41200000D01*
X32250000Y-25200000D02*
X37450000Y-25200000D01*
X32250000Y-27700000D02*
X32250000Y-25200000D01*
X37450000Y-25200000D02*
X37450000Y-27700000D01*
X37450000Y-27700000D02*
X37950000Y-27700000D01*
X37950000Y-27700000D02*
X37950000Y-30900000D01*
X37950000Y-33500000D02*
X37950000Y-42400000D01*
X37950000Y-42400000D02*
X31750000Y-42400000D01*
%TO.C,Q3*%
X46880000Y-59600000D02*
X50480000Y-59600000D01*
X46841522Y-59588478D02*
G75*
G02*
X48680000Y-55149999I1838478J1838478D01*
G01*
X48680000Y-55150000D02*
G75*
G02*
X50518478Y-59588478I0J-2600000D01*
G01*
%TD*%
M02*
